<?xml version="1.0" encoding="UTF-8"?><svg id="Layer_2" xmlns="http://www.w3.org/2000/svg" viewBox="0 0 100.49 57.32"><defs><style>.cls-1{fill:#fff;}</style></defs><g id="Layer_1-2"><path class="cls-1" d="M3.06,24.92l94.4,.4c1.51,0,2.79,1.12,3,2.62h0c.26,1.84-1.17,3.47-3.03,3.47l-94.4-.4c-1.51,0-2.79-1.12-3-2.62h0c-.26-1.84,1.17-3.47,3.03-3.47Z"/><path class="cls-1" d="M97.44,6.32L3.04,6.09c-1.85,0-3.27-1.65-3-3.49h0C.25,1.1,1.54,0,3.05,0L97.45,.24c1.85,0,3.27,1.65,3,3.49h0c-.22,1.5-1.51,2.6-3.02,2.6Z"/><path class="cls-1" d="M97.44,57.32l-94.4-.24c-1.85,0-3.27-1.65-3-3.49h0c.22-1.5,1.51-2.6,3.02-2.6l94.4,.24c1.85,0,3.27,1.65,3,3.49h0c-.22,1.5-1.51,2.6-3.02,2.6Z"/></g></svg>