<?xml version="1.0" encoding="UTF-8"?><svg id="Layer_2" xmlns="http://www.w3.org/2000/svg" viewBox="0 0 73.8 71.87"><defs><style>.cls-1{fill:#fff;}</style></defs><g id="Layer_1-2"><path class="cls-1" d="M5.16,.86L72.88,66.64c1.08,1.05,1.23,2.74,.34,3.97h0c-1.09,1.5-3.25,1.69-4.58,.4L.92,5.23C-.16,4.17-.31,2.48,.58,1.26h0C1.67-.24,3.83-.43,5.16,.86Z"/><path class="cls-1" d="M72.88,5.23L5.16,71c-1.33,1.29-3.5,1.1-4.58-.4h0c-.89-1.22-.74-2.91,.34-3.97L68.64,.86c1.33-1.29,3.5-1.1,4.58,.4h0c.89,1.22,.74,2.91-.34,3.97Z"/></g></svg>