<?xml version="1.0" encoding="UTF-8"?><svg id="Layer_1" xmlns="http://www.w3.org/2000/svg" viewBox="0 0 2500 442"><defs><style>.cls-1{fill:#fff;}</style></defs><path class="cls-1" d="M2251.09,47.5c-96.07,0-174.27,78.19-174.27,174.29,0,1.58,.08,3.17,.25,4.7h-.09v89.48h97.63v-88.85c.21-1.75,.33-3.54,.33-5.33,0-42.02,34.15-76.19,76.16-76.19,30.17,0,57.5,17.8,69.71,45.39,1.57,3.5,3.55,6.8,5.89,9.83l82.94-51.32c-28.31-62.01-90.26-101.99-158.54-101.99h0Z"/><path class="cls-1" d="M2404.28,208.48s-16.35,78.45-2.97,103.22c13.43,24.77,45.29,34.65,70.54,20.97,25.3-13.68,34.38-45.74,20.97-70.52-13.41-24.77-88.54-53.67-88.54-53.67"/><path d="M1825.09,297.44c-.6-.1-1.12-.23-1.6-.32,.54,.09,1.07,.21,1.6,.32Zm9.66,1.28c-2.27-.21-4.54-.49-6.8-.82,2.21,.37,4.51,.66,6.8,.82Z"/><path class="cls-1" d="M1840.86,47.16c-96.4,0-174.78,78.39-174.78,174.8s77.48,173.7,172.78,174.77h35.6v-95.22c-12.51-.66-28.56-1.64-39.7-2.79-2.28-.17-4.55-.44-6.8-.82-.96-.11-1.92-.27-2.87-.47-.54-.1-1.07-.23-1.6-.32-.17-.08-.34-.13-.53-.15-33.66-8.03-59.18-38.7-59.18-75.01,0-42.51,34.56-78.24,77.07-77.08,17.12,.45,31.09,5.05,43.45,13.56,17.16,11.78,28.53,30.09,28.53,51.93,0,29.5-20.79,54.04-48.48,60.1v1.71c8.13,.11,19.08-.25,33.98-.25h110.01l.05-.03c4.83-16.21,7.27-33.04,7.25-49.96-.01-96.39-78.4-174.78-174.79-174.78h0Z"/><path d="M1827.96,297.91c-.96-.16-1.93-.28-2.87-.47,.84,.18,1.78,.33,2.87,.47Z"/><path class="cls-1" d="M383.71,222.05c0-2.25-.08-4.51-.16-6.73V0h-98.11V65.65c-23.5-11.35-49.26-17.22-75.35-17.18-95.89,0-173.62,77.73-173.62,173.58s77.73,173.61,173.62,173.61,173.62-77.73,173.62-173.61Zm-249.26,.03c0-41.76,33.88-75.62,75.62-75.62s75.61,33.87,75.61,75.62-33.83,75.62-75.61,75.62c-41.74,0-75.62-33.86-75.62-75.62Z"/><path class="cls-1" d="M786.07,221.36c0-95.88-77.73-173.58-173.59-173.58s-173.62,77.7-173.62,173.58,77.73,173.61,173.62,173.61c95.87,0,173.59-77.73,173.59-173.61Zm-249.36,.72c0-41.76,33.84-75.62,75.61-75.62s75.64,33.87,75.64,75.62-33.88,75.62-75.64,75.62c-41.78,0-75.61-33.86-75.61-75.62Z"/><path class="cls-1" d="M949.33,377.85c23.5,11.31,49.24,17.17,75.32,17.15,95.87,0,173.59-77.71,173.59-173.59s-77.73-173.61-173.59-173.61-173.58,77.73-173.58,173.61c0,2.12,.07,4.22,.15,6.31v214.28h98.11v-64.15Zm-.05-156.45c0-41.65,33.74-75.41,75.38-75.41s75.41,33.76,75.41,75.41-33.76,75.4-75.41,75.4-75.37-33.76-75.37-75.4h0Z"/><path class="cls-1" d="M1355.83,377.85c23.49,11.32,49.24,17.18,75.31,17.15,95.88,0,173.59-77.71,173.59-173.59s-77.71-173.61-173.59-173.61-173.6,77.73-173.6,173.61c0,2.12,.08,4.22,.18,6.31v214.28h98.11v-64.15Zm-.12-156.45c0-41.65,33.78-75.41,75.43-75.41s75.41,33.76,75.41,75.41-33.77,75.4-75.41,75.4-75.43-33.76-75.43-75.4h0Z"/><path class="cls-1" d="M27.94,49.16c14.76,0,26.54,12.03,26.54,27.04s-11.78,27.14-26.66,27.14c-14.78,0-26.81-11.91-26.81-27.14s12.03-27.04,26.81-27.04h.12Zm-.12,4.23c-11.92,0-21.62,10.19-21.62,22.81s9.71,22.93,21.75,22.93c12,.12,21.58-10.1,21.58-22.82s-9.58-22.92-21.58-22.92c0,0-.12,0-.12,0Zm-5.05,38.55h-4.8v-30.15c2.53-.37,4.9-.72,8.5-.72,4.58,0,7.58,.94,9.38,2.29,1.8,1.3,2.79,3.36,2.79,6.24,0,3.96-2.67,6.35-5.9,7.32v.25c2.65,.48,4.45,2.87,5.05,7.31,.71,4.7,1.45,6.5,1.91,7.47h-5.04c-.74-.97-1.44-3.74-2.05-7.71-.72-3.82-2.63-5.27-6.47-5.27h-3.37v12.98Zm0-16.69h3.47c3.96,0,7.34-1.46,7.34-5.19,0-2.62-1.94-5.27-7.34-5.27-1.56,0-2.63,.11-3.47,.23,0,0,0,10.22,0,10.22Z"/></svg>