<?xml version="1.0" encoding="UTF-8"?><svg id="Layer_2" xmlns="http://www.w3.org/2000/svg" viewBox="0 0 86.17 83.18"><defs><style>.cls-1{fill:#fff;}.cls-2{fill:#203464;}</style></defs><g id="Layer_1-2"><path class="cls-1" d="M85.77,45.09c-3.26,21.57-24.58,36.48-44.18,37.91-4.01,.29-18.69,1.38-30.11-9.17C-1.04,62.27-.2,45.68,.17,41.58,2.04,20.66,20.49,2.23,41.59,.15c2.51-.25,22.97-1.76,35.92,14.06,10.69,13.05,8.61,28.55,8.25,30.88Z"/><path class="cls-2" d="M58.03,43.49l-20.78,12c-1.46,.84-3.29-.21-3.29-1.9V29.59c0-1.69,1.83-2.74,3.29-1.9l20.78,12c1.46,.84,1.46,2.95,0,3.8Z"/></g></svg>