<?xml version="1.0" encoding="UTF-8"?><svg id="Layer_2" xmlns="http://www.w3.org/2000/svg" viewBox="0 0 78.9 69.28"><defs><style>.cls-1{fill:none;stroke:#203464;stroke-linecap:round;stroke-linejoin:round;stroke-width:6px;}</style></defs><g id="Layer_1-2"><path class="cls-1" d="M75.9,13.01c-4.38-.06-8.76-.11-13.15-.17-.28-1.07-1.41-4.85-5.16-7.49-.45-.32-4.95-3.37-10.65-2-4.55,1.1-7.02,4.34-8.15,5.82-4.8,6.29-3.8,13.79-3.49,15.64-4.06-.82-10.15-2.55-16.64-6.49C11.29,13.87,6.61,8.51,4,5.02c-.82,3.71-2.87,15.33,3.16,27.79,4.45,9.2,11.14,14.39,14.48,16.64-1.67,1.89-4.28,4.42-7.99,6.66-3.51,2.11-6.78,3.22-9.15,3.83,3.34,2.19,10.22,6.02,19.47,6.32,17.68,.59,29.09-12.19,31.12-14.48,10.01-11.27,11.01-24.36,11.15-28.62,3.22-3.38,6.43-6.77,9.65-10.15Z"/></g></svg>